<svg width="209" height="100" viewBox="0 0 209 100" fill="none" xmlns="http://www.w3.org/2000/svg">
<path d="M23.2531 70.2411C22.9753 71.5711 22.6141 73.2336 22.1696 75.2286C21.7807 77.2236 21.3084 79.3295 20.7528 81.5461C20.2527 83.7628 19.6415 85.9518 18.9192 88.113C18.2524 90.3297 17.5023 92.297 16.6689 94.015C15.8355 95.7883 14.9187 97.2291 13.9185 98.3375C12.9184 99.4458 11.8071 100 10.5847 100C8.75117 100 7.16762 99.4458 5.83411 98.3375C4.55616 97.2846 3.47269 95.9268 2.58368 94.2643C1.69467 92.6572 1.0557 90.9116 0.666756 89.0274C0.222252 87.1432 0 85.3976 0 83.7905C0 81.5738 0.19447 79.7174 0.583411 78.2211C0.972352 76.7803 1.63911 75.3948 2.58368 74.0648C3.58381 72.7348 4.91732 71.3217 6.58421 69.8254C8.2511 68.3292 10.3903 66.4727 13.0017 64.256C14.2797 63.1477 15.5021 62.0948 16.6689 61.0973C17.8357 60.0997 18.947 59.1854 20.0027 58.3541C20.2805 57.2458 20.5305 56.2206 20.7528 55.2785C21.0306 54.281 21.2528 53.3943 21.4195 52.6185C19.9749 54.558 18.2247 56.1928 16.1688 57.5229C14.1686 58.8529 11.8627 59.5179 9.25124 59.5179C6.86203 59.5179 4.91732 58.4649 3.41712 56.3591C1.97249 54.1978 1.25017 51.0391 1.25017 46.8828C1.25017 44.8324 1.63911 42.4771 2.41699 39.8171C3.19487 37.1571 4.30613 34.6633 5.75077 32.3358C7.19541 30.0083 8.97342 28.041 11.0848 26.4339C13.1962 24.8268 15.5576 24.0233 18.1691 24.0233C19.3915 24.0233 20.4472 24.3281 21.3362 24.9377C22.2252 25.5472 22.9753 26.3231 23.5865 27.2652C24.1977 28.1518 24.67 29.1216 25.0033 30.1746C25.3367 31.1721 25.5868 32.1142 25.7534 33.0008C25.8646 32.6683 25.9479 32.3358 26.0035 32.0033C26.059 31.6154 26.1424 31.2829 26.2535 31.0058C26.8091 29.1216 27.4203 27.847 28.0871 27.182C28.8094 26.4616 29.8651 26.1014 31.2542 26.1014C32.0321 26.1014 32.671 26.24 33.1711 26.517C33.7267 26.7941 34.0045 27.0435 34.0045 27.2652C33.7267 27.8748 33.5045 28.3458 33.3378 28.6783C33.1711 29.0108 33.0044 29.371 32.8377 29.7589C32.671 30.0914 32.5043 30.5348 32.3377 31.0889C32.171 31.6431 31.9487 32.4467 31.6709 33.4996C31.5598 33.8875 31.3375 34.8019 31.0041 36.2427C30.7263 37.6282 30.3374 39.2907 29.8373 41.2303C29.3928 43.1698 28.8928 45.3034 28.3371 47.6309C27.8371 49.9584 27.337 52.2305 26.8369 54.4472C28.3927 53.5605 30.004 52.4799 31.6709 51.2053C33.3378 49.9307 34.9213 48.6284 36.4215 47.2984C37.9217 45.9684 39.2552 44.7215 40.4221 43.5578C41.5889 42.3386 42.4501 41.3411 43.0057 40.5653C43.4503 39.9002 43.9503 39.4292 44.506 39.1521C45.0616 38.875 45.5339 38.7919 45.9228 38.9027C46.3673 38.9582 46.6173 39.2075 46.6729 39.6509C46.784 40.0388 46.6173 40.593 46.1728 41.3134C44.8949 43.3638 43.3391 45.3588 41.5056 47.2984C39.672 49.1826 37.7828 50.9559 35.8381 52.6185C33.949 54.2255 32.0876 55.6664 30.254 56.941C28.476 58.1602 26.948 59.1577 25.6701 59.9335C25.1145 62.4273 24.6422 64.45 24.2532 66.0017C23.8643 67.5533 23.5309 68.9665 23.2531 70.2411ZM12.7517 53.8653C13.9185 53.8653 15.002 53.5605 16.0021 52.951C17.0578 52.3414 18.0024 51.6487 18.8359 50.8728C19.6693 50.0416 20.3638 49.2103 20.9195 48.3791C21.4751 47.5478 21.8918 46.8828 22.1696 46.384C22.3919 45.8853 22.6419 45.2203 22.9197 44.389C23.2531 43.5578 23.5031 42.7542 23.6698 41.9784C23.8365 41.2025 23.8921 40.5098 23.8365 39.9002C23.8365 39.2907 23.642 38.9582 23.2531 38.9027C22.9197 38.8473 22.6419 38.6257 22.4197 38.2377C22.253 37.8498 22.1141 37.4065 22.0029 36.9077C21.8918 36.409 21.8085 35.9102 21.7529 35.4115C21.7529 34.9127 21.7251 34.4694 21.6696 34.0815C21.3917 32.1419 20.9195 30.7287 20.2527 29.8421C19.586 28.9554 18.8359 28.5121 18.0024 28.5121C16.6133 28.5121 15.2798 29.0662 14.0019 30.1746C12.7795 31.2829 11.6682 32.7237 10.6681 34.4971C9.72352 36.215 8.97342 38.1269 8.41779 40.2327C7.86216 42.2832 7.58435 44.2505 7.58435 46.1347C7.58435 48.4622 7.91772 50.3464 8.58448 51.7872C9.25124 53.1726 10.6403 53.8653 12.7517 53.8653ZM8.91786 92.4356C10.0291 92.4356 10.9181 91.6043 11.5849 89.9418C12.3072 88.3347 13.0573 86.118 13.8352 83.2918C14.0019 82.6268 14.2241 81.657 14.5019 80.3824C14.8353 79.1632 15.1965 77.7501 15.5854 76.143C16.0299 74.5359 16.4744 72.7902 16.9189 70.9061C17.3634 69.0773 17.8357 67.2208 18.3358 65.3367C17.8913 65.7246 17.419 66.1125 16.9189 66.5004C16.4744 66.9437 16.0021 67.4425 15.5021 67.9967C14.2797 69.1604 13.0851 70.2688 11.9183 71.3217C10.807 72.43 9.80687 73.5661 8.91786 74.7298C8.02885 75.949 7.30653 77.2513 6.7509 78.6367C6.25084 80.0222 6.0008 81.6293 6.0008 83.458C6.0008 85.2868 6.05637 86.783 6.16749 87.9468C6.33418 89.1106 6.52865 90.0249 6.7509 90.6899C7.02872 91.3549 7.33431 91.7983 7.66769 92.0199C8.05663 92.297 8.47335 92.4356 8.91786 92.4356Z" fill="#F6EBF9"/>
<path d="M39.2552 57.0241C41.7 46.772 43.6447 38.5425 45.0894 32.3358C46.5896 26.1291 47.7286 21.391 48.5065 18.1214C49.3955 14.2422 50.0067 11.5544 50.3401 10.0582C50.5068 9.00526 50.6457 7.98005 50.7568 6.98254C50.8679 6.09587 50.9235 5.18149 50.9235 4.2394C50.9235 3.29731 50.8401 2.43835 50.6734 1.66251C51.1179 1.38543 51.5902 1.16376 52.0903 0.997506C52.6459 0.831255 53.1738 0.692713 53.6738 0.581879C54.285 0.415628 54.8962 0.277085 55.5074 0.166251C56.1186 0.055417 56.6742 0 57.1743 0C57.6188 0 58.0355 0.055417 58.4245 0.166251C58.8134 0.221668 59.0634 0.387919 59.1746 0.665004C59.508 0.942089 59.6469 1.49626 59.5913 2.32751C59.5913 3.15877 59.5357 4.01773 59.4246 4.90441C59.2024 5.95733 58.9523 7.09338 58.6745 8.31255C58.0078 10.6955 57.091 14.1313 55.9241 18.6201C54.924 22.4439 53.5627 27.6531 51.8403 34.2477C50.1734 40.8423 48.062 49.1549 45.5061 59.1854C45.2283 59.4625 44.8949 59.6564 44.506 59.7672C44.117 59.8781 43.7558 59.9335 43.4225 59.9335C43.0335 59.9335 42.6168 59.9058 42.1723 59.8504C41.7834 59.7395 41.3944 59.5733 41.0055 59.3516C40.6721 59.13 40.3387 58.8252 40.0053 58.4372C39.672 58.1047 39.4219 57.6337 39.2552 57.0241Z" fill="#F6EBF9"/>
<path d="M126.517 43.9734C125.739 45.9684 124.85 47.908 123.85 49.7922C122.85 51.6764 121.738 53.3666 120.516 54.8628C119.294 56.3591 117.988 57.5506 116.599 58.4372C115.21 59.3239 113.71 59.7672 112.098 59.7672C109.487 59.7672 107.514 58.9083 106.181 57.1904C104.847 55.417 103.931 53.2557 103.43 50.7066C102.653 51.8703 101.819 53.0341 100.93 54.1978C100.041 55.3616 99.0966 56.3868 98.0964 57.2735C97.0963 58.1602 96.0684 58.8806 95.0127 59.4347C93.957 59.9889 92.9013 60.266 91.8456 60.266C90.401 60.266 89.1786 59.9612 88.1785 59.3516C87.1783 58.742 86.3449 57.9108 85.6781 56.8579C85.0669 55.7495 84.6224 54.5026 84.3446 53.1172C84.0668 51.6764 83.9279 50.1524 83.9279 48.5453V47.5478C83.9279 45.4974 84.0946 43.3915 84.4279 41.2303C84.7613 39.069 85.1225 37.074 85.5114 35.2452C85.9559 33.4165 86.4004 31.8371 86.8449 30.5071C87.2894 29.1216 87.6228 28.2073 87.8451 27.7639C88.234 27.2098 89.0675 26.6833 90.3454 26.1845C91.6789 25.6304 92.9846 25.4087 94.2626 25.5195C94.8738 25.575 95.1794 25.8243 95.1794 26.2677C95.2349 26.711 95.1794 27.2652 95.0127 27.9302C94.7904 28.8723 94.4015 30.2854 93.8459 32.1696C93.2902 34.0538 92.7068 36.1042 92.0956 38.3209C91.54 40.5375 91.0399 42.7265 90.5954 44.8878C90.1509 47.049 89.9287 48.8501 89.9287 50.2909C89.9287 52.0643 90.2065 53.3389 90.7621 54.1147C91.3178 54.8906 92.179 55.2785 93.3458 55.2785C94.7349 55.2785 96.2629 54.5026 97.9297 52.951C99.6522 51.3993 101.319 48.767 102.93 45.054C102.875 44.7215 102.847 44.389 102.847 44.0565C102.847 43.724 102.847 43.3638 102.847 42.9759C102.847 40.4821 102.93 38.0992 103.097 35.8271C103.319 33.555 103.708 31.56 104.264 29.8421C104.875 28.1241 105.681 26.7664 106.681 25.7689C107.737 24.7714 109.098 24.2727 110.765 24.2727C111.432 24.2727 111.987 24.4666 112.432 24.8545C112.876 25.2424 113.098 25.7966 113.098 26.517C113.098 28.2904 112.459 30.8119 111.182 34.0815C109.959 37.2956 108.487 40.8423 106.764 44.7215C106.598 44.9432 106.486 45.1649 106.431 45.3865C106.598 46.4395 106.792 47.5478 107.014 48.7116C107.292 49.8753 107.653 50.9559 108.098 51.9534C108.542 52.8955 109.07 53.6991 109.681 54.3641C110.293 54.9737 111.015 55.2785 111.848 55.2785C113.071 55.2785 114.182 54.6966 115.182 53.5328C116.238 52.3691 117.155 50.9559 117.932 49.2934C118.766 47.6309 119.488 45.8853 120.099 44.0565C120.711 42.1723 121.183 40.5098 121.516 39.069C121.35 38.4594 121.211 37.8775 121.1 37.3234C120.988 36.7138 120.933 36.0211 120.933 35.2452C120.933 33.5273 121.183 32.0587 121.683 30.8396C122.183 29.6204 122.822 28.6229 123.6 27.847C124.433 27.0158 125.295 26.4062 126.184 26.0183C127.128 25.6304 127.989 25.4364 128.767 25.4364C130.156 25.4364 130.851 26.046 130.851 27.2652C130.851 28.1518 130.629 29.7035 130.184 31.9202C129.74 34.0815 129.101 36.5475 128.267 39.3184C129.267 39.7617 130.545 39.9834 132.101 39.9834C133.546 39.9834 134.879 39.8171 136.102 39.4846C137.324 39.0967 138.435 38.6257 139.435 38.0715C140.435 37.5173 141.352 36.9077 142.186 36.2427C143.019 35.5777 143.825 34.9404 144.603 34.3308C145.214 33.8875 145.714 33.8598 146.103 34.2477C146.492 34.6356 146.436 35.2452 145.936 36.0765C145.492 36.7969 144.714 37.6282 143.603 38.5702C142.547 39.5123 141.241 40.4267 139.685 41.3134C138.185 42.1446 136.49 42.8651 134.601 43.4746C132.768 44.0288 130.823 44.3059 128.767 44.3059C128.434 44.3059 128.073 44.2782 127.684 44.2228C127.295 44.1674 126.906 44.0842 126.517 43.9734Z" fill="#F6EBF9"/>
<path d="M156.604 9.39318C156.438 10.0028 156.104 10.6124 155.604 11.2219C155.16 11.7761 154.632 12.2472 154.021 12.6351C153.465 12.9676 152.882 13.1892 152.27 13.3001C151.659 13.4109 151.159 13.3001 150.77 12.9676C149.603 12.0809 148.992 11.1388 148.937 10.1413C148.881 9.08839 149.131 8.11859 149.687 7.23192C150.242 6.28983 150.937 5.51399 151.77 4.90441C152.604 4.2394 153.326 3.85148 153.937 3.74065C154.548 3.62981 155.049 3.76836 155.437 4.15628C155.882 4.48878 156.215 4.95982 156.438 5.56941C156.66 6.12358 156.771 6.76088 156.771 7.4813C156.827 8.20172 156.771 8.83901 156.604 9.39318ZM145.103 27.0989C145.381 26.7664 145.908 26.4893 146.686 26.2677C147.464 26.046 148.27 25.8797 149.103 25.7689C149.937 25.6027 150.687 25.5195 151.354 25.5195C152.076 25.4641 152.493 25.4641 152.604 25.5195C152.659 25.575 152.52 26.1568 152.187 27.2652C151.854 28.3735 151.437 29.6758 150.937 31.1721C150.437 32.6683 149.909 34.22 149.353 35.8271C148.798 37.3788 148.381 38.6534 148.103 39.6509C147.825 40.6484 147.492 41.7844 147.103 43.059C146.714 44.2782 146.353 45.4974 146.02 46.7165C145.742 47.8803 145.547 48.9886 145.436 50.0416C145.325 51.0945 145.408 51.898 145.686 52.4522C145.964 53.1172 146.27 53.5882 146.603 53.8653C146.936 54.087 147.297 54.1978 147.686 54.1978C148.798 54.1978 150.187 53.5882 151.854 52.3691C153.576 51.1499 155.299 49.7091 157.021 48.0465C158.799 46.3286 160.438 44.6107 161.938 42.8928C163.439 41.1194 164.55 39.7063 165.272 38.6534C165.717 38.0992 166.161 37.739 166.606 37.5727C167.106 37.4065 167.495 37.4342 167.772 37.6559C168.106 37.8775 168.272 38.2377 168.272 38.7365C168.328 39.2352 168.161 39.8171 167.772 40.4821C166.883 42.0338 165.578 43.8903 163.855 46.0515C162.133 48.1574 160.299 50.2078 158.355 52.2028C156.41 54.1424 154.493 55.8049 152.604 57.1904C150.77 58.5758 149.27 59.2962 148.103 59.3516C147.159 59.407 146.214 59.2408 145.269 58.8529C144.38 58.5204 143.547 58.0493 142.769 57.4397C142.047 56.7747 141.436 56.0266 140.936 55.1953C140.435 54.3087 140.158 53.3943 140.102 52.4522C139.935 51.0668 139.935 49.1826 140.102 46.7997C140.269 44.3613 140.574 41.8953 141.019 39.4015C141.463 36.8523 142.019 34.4417 142.686 32.1696C143.408 29.8975 144.214 28.2073 145.103 27.0989Z" fill="#F6EBF9"/>
<path d="M186.442 60.4323C185.164 60.4323 184.052 60.1829 183.108 59.6841C182.219 59.2408 181.496 58.6312 180.941 57.8554C180.385 57.0795 180.024 56.1928 179.857 55.1953C179.691 54.1424 179.746 53.0341 180.024 51.8703C180.191 51.0945 180.469 50.0693 180.857 48.7947C181.246 47.4647 181.635 46.0515 182.024 44.5553C182.469 43.0036 182.858 41.4796 183.191 39.9834C183.58 38.4317 183.83 37.0463 183.941 35.8271C184.052 34.5525 183.997 33.5273 183.775 32.7515C183.552 31.9202 183.08 31.5046 182.358 31.5046C181.469 31.5046 180.552 31.8094 179.607 32.4189C178.663 32.9731 177.69 33.749 176.69 34.7465C175.746 35.744 174.773 36.9077 173.773 38.2377C172.829 39.5123 171.884 40.8423 170.939 42.2278C170.439 44.1119 170.023 45.7745 169.689 47.2153C169.356 48.6007 169.05 49.8753 168.773 51.0391C168.55 52.1474 168.328 53.1449 168.106 54.0316C167.884 54.8628 167.689 55.6664 167.522 56.4422C167.356 56.9964 166.856 57.5506 166.022 58.1047C165.189 58.6035 164.3 59.0191 163.355 59.3516C162.411 59.6841 161.605 59.8504 160.938 59.8504C160.216 59.8504 159.91 59.601 160.021 59.1022C160.077 58.7697 160.271 58.0216 160.605 56.8579C160.883 55.6941 161.244 54.3364 161.688 52.7847C162.077 51.1776 162.494 49.4874 162.938 47.714C163.383 45.9407 163.8 44.2505 164.189 42.6434C164.466 41.3688 164.772 39.9557 165.105 38.404C165.383 37.074 165.717 35.5223 166.106 33.749C166.55 31.9756 167.05 30.036 167.606 27.9302C167.995 27.5977 168.384 27.3483 168.773 27.182C169.217 26.9604 169.662 26.7941 170.106 26.6833C170.551 26.517 171.023 26.4062 171.523 26.3508C171.967 26.3508 172.412 26.3785 172.856 26.4339C173.245 26.4893 173.634 26.6002 174.023 26.7664C174.468 26.8773 174.857 27.0712 175.19 27.3483C175.023 27.7362 174.829 28.2904 174.607 29.0108C174.384 29.6758 174.162 30.3962 173.94 31.1721C173.718 32.0587 173.44 32.9731 173.106 33.9152C173.829 32.9177 174.634 31.9202 175.523 30.9227C176.468 29.8698 177.468 28.9277 178.524 28.0964C179.635 27.2652 180.802 26.6002 182.024 26.1014C183.247 25.5472 184.497 25.2702 185.775 25.2702C186.831 25.2702 187.775 25.575 188.609 26.1845C189.442 26.7941 190.081 27.6531 190.525 28.7614C191.026 29.8144 191.303 31.0889 191.359 32.5852C191.47 34.0815 191.276 35.7163 190.775 37.4896L189.859 41.1471C189.581 42.3109 189.22 43.6963 188.775 45.3034C188.386 46.8551 187.886 48.573 187.275 50.4572C186.942 51.6764 186.803 52.7293 186.858 53.616C186.969 54.5026 187.525 54.946 188.525 54.946C189.525 54.946 190.775 54.3364 192.276 53.1172C193.831 51.898 195.387 50.4295 196.943 48.7116C198.499 46.9936 199.971 45.248 201.36 43.4746C202.749 41.6459 203.805 40.1773 204.527 39.069C205.027 38.3486 205.5 37.8775 205.944 37.6559C206.389 37.4342 206.722 37.4065 206.944 37.5727C207.222 37.739 207.361 38.1269 207.361 38.7365C207.361 39.2907 207.139 40.0111 206.694 40.8978C206.305 41.6736 205.694 42.6988 204.861 43.9734C204.083 45.248 203.138 46.6057 202.027 48.0465C200.916 49.4874 199.721 50.9559 198.443 52.4522C197.165 53.893 195.832 55.223 194.443 56.4422C193.054 57.606 191.664 58.5481 190.275 59.2685C188.942 60.0443 187.664 60.4323 186.442 60.4323Z" fill="#F6EBF9"/>
<path d="M74.3843 57.5264C73.1857 58.029 73.7454 60.14 72.4526 60.2556C71.067 60.3795 70.4236 58.8996 70.1346 57.5264C70.0092 56.9307 70.0774 56.5732 70.1346 55.9669C70.2703 54.529 70.0134 53.1039 71.2936 52.458C72.1033 52.0494 72.7064 52.458 73.6116 52.458C74.0642 52.458 74.3339 52.5781 74.7706 52.458C75.2954 52.3135 75.6967 52.1743 75.9296 51.6782C76.1234 51.2654 75.672 50.8841 75.9296 50.5085C76.2012 50.1127 76.7023 50.5086 77.0886 50.1187C77.2093 49.9969 77.1363 49.8732 77.0886 49.7288C77.0212 49.5245 76.7023 49.3389 76.7023 49.3389L77.0886 48.949C77.4749 48.5592 77.0886 48.5592 76.7023 48.1693C76.3176 47.7811 75.9296 47.3894 76.316 47.3895H77.0886C77.8613 47.3895 77.333 46.7131 77.0886 46.2199C76.7023 45.4401 76.316 45.0503 75.9296 44.2705C75.7947 43.9981 75.8641 43.788 75.9296 43.4907C76.0028 43.1584 75.8564 43.0433 75.9296 42.7109C75.9951 42.4136 75.9604 42.2341 75.9296 41.9311C75.8467 41.1155 75.9462 40.1764 75.1569 39.9817C74.3279 39.7772 73.8859 40.7257 73.6116 41.5413C73.2585 42.5909 74.7575 43.2279 74.3843 44.2704C73.9709 45.4249 72.3546 44.8086 71.6799 45.83C71.0052 46.8513 72.1884 48.1175 71.2936 48.949C70.5088 49.6783 69.3843 48.621 68.5892 49.3389C67.8781 49.981 68.5698 51.087 67.8166 51.6782C67.5503 51.8872 67.0439 52.0681 67.0439 52.0681C66.1667 52.3404 65.5331 51.2375 64.7259 51.6782C64.3505 51.8831 64.1728 52.0887 63.9532 52.458C63.4875 53.2413 64.0674 53.891 63.9532 54.7973C63.6806 56.9598 63.5755 60.824 61.6352 59.8657C60.658 59.3831 61.0629 58.0175 60.0898 57.5264C59.0019 56.9775 58.0542 58.5273 56.9992 57.9163C55.8811 57.2689 56.8885 55.5543 55.8401 54.7973C54.9726 54.1707 53.8312 55.2238 53.1358 54.4074C52.4473 53.5992 53.6281 52.6211 53.1358 51.6782C52.5688 50.5922 50.8448 51.2732 50.4314 50.1187C50.0582 49.0762 51.4316 48.4739 51.2041 47.3895C50.939 46.1255 49.0312 46.3338 48.8861 45.0502C48.7482 43.8306 50.4314 43.5486 50.4314 42.321C50.4314 41.0935 48.6543 40.7969 48.8861 39.5918C49.1107 38.4245 50.8194 38.7664 51.2041 37.6424C51.6103 36.4557 49.9334 35.6739 50.4314 34.5234C50.9184 33.3985 52.5688 34.0499 53.1358 32.9638C53.6281 32.0209 52.5402 31.1148 53.1358 30.2347C53.8374 29.1978 55.3638 30.3597 56.2265 29.4549C56.988 28.6562 56.1102 27.3767 56.9992 26.7257C57.9837 26.0048 58.9623 27.5761 60.0898 27.1156C61.1821 26.6695 60.8878 25.1004 62.0215 24.7763C63.0783 24.4742 63.641 25.7295 64.7259 25.5561C65.8004 25.3843 65.9585 24.0721 67.0439 23.9965C68.2574 23.9121 68.5378 25.4348 69.7482 25.5561C70.8412 25.6656 71.3958 24.4742 72.4526 24.7763C73.5864 25.1004 73.2731 26.7197 74.3843 27.1156C75.3903 27.474 76.1862 26.1515 77.0886 26.7257C78.0177 27.317 77.0997 28.6562 77.8613 29.4549C78.7239 30.3597 80.1341 29.2885 80.952 30.2347C81.7516 31.1597 80.6727 32.3263 81.3383 33.3537C81.9337 34.2727 83.2184 33.9082 83.6563 34.9133C84.0858 35.8988 82.9326 36.621 83.27 37.6424C83.6074 38.6638 84.9737 38.5401 85.2017 39.5918C85.4472 40.7246 84.0427 41.1615 84.0427 42.321C84.0427 43.4806 85.3588 43.9015 85.2017 45.0502C85.0405 46.2282 83.5665 46.2386 83.27 47.3895C83.0016 48.4315 84.082 49.1314 83.6563 50.1187C83.171 51.2443 81.5602 50.6151 80.952 51.6782C80.3485 52.7331 81.7477 53.8813 80.952 54.7973C80.1501 55.7203 78.6852 54.2841 77.8613 55.1871C77.1387 55.9792 78.2794 57.2092 77.475 57.9163C76.5577 58.7225 75.5076 57.0554 74.3843 57.5264Z" fill="#F6EBF9" stroke="#F6EBF9" stroke-width="0.661187"/>
<path d="M28.6872 80.8076V74.5553H30.8398C31.4293 74.5553 31.8937 74.6983 32.2331 74.9841C32.5785 75.2639 32.7512 75.6301 32.7512 76.0827C32.7512 76.428 32.6559 76.7198 32.4654 76.958C32.2808 77.1962 32.0545 77.357 31.7865 77.4403C32.0605 77.5237 32.2897 77.6428 32.4743 77.7976C32.6589 77.9524 32.7988 78.134 32.8941 78.3424C32.9894 78.5449 33.037 78.7741 33.037 79.0302C33.037 79.3755 32.9655 79.6822 32.8226 79.9502C32.6797 80.2181 32.4594 80.4295 32.1617 80.5843C31.8699 80.7332 31.4977 80.8076 31.0452 80.8076H28.6872ZM29.4375 80.1824H30.813C31.2715 80.1824 31.6287 80.0871 31.8848 79.8966C32.1468 79.706 32.2778 79.4023 32.2778 78.9855C32.2778 78.5628 32.1379 78.2561 31.858 78.0655C31.5781 77.875 31.2238 77.7797 30.7951 77.7797H29.4375V80.1824ZM29.4375 77.1813H30.7862C31.1732 77.1813 31.471 77.092 31.6794 76.9133C31.8878 76.7288 31.992 76.4846 31.992 76.1809C31.992 75.8653 31.8878 75.6212 31.6794 75.4485C31.471 75.2699 31.1643 75.1806 30.7594 75.1806H29.4375V77.1813ZM40.3125 80.8076V74.5553H42.1614C42.602 74.5553 42.9772 74.6208 43.2868 74.7518C43.5965 74.8769 43.8346 75.0674 44.0014 75.3235C44.1681 75.5795 44.2515 75.904 44.2515 76.297C44.2515 76.7853 44.1234 77.1545 43.8674 77.4046C43.6173 77.6547 43.2749 77.8184 42.8402 77.8958L44.6355 80.8076H43.7066L42.0989 78.0388H41.0628V80.8076H40.3125ZM41.0628 77.4046H42.1435C42.477 77.4046 42.742 77.3659 42.9385 77.2885C43.135 77.2051 43.2749 77.0801 43.3583 76.9133C43.4416 76.7466 43.4833 76.5412 43.4833 76.297C43.4833 76.047 43.4416 75.8385 43.3583 75.6718C43.2749 75.5051 43.135 75.383 42.9385 75.3056C42.742 75.2223 42.477 75.1806 42.1435 75.1806H41.0628V77.4046ZM51.8593 80.8076V74.5553H52.6096V80.8076H51.8593ZM60.1876 80.8076V74.5553H60.9378V80.2092H63.8496V80.8076H60.1876ZM71.1325 80.8076V74.5553H71.8828V80.2092H74.7946V80.8076H71.1325ZM81.6845 80.8076L83.9889 74.5553H84.7838L87.0793 80.8076H86.2844L85.7128 79.1999H83.0511L82.4705 80.8076H81.6845ZM83.2744 78.5925H85.4895L84.3819 75.5021L83.2744 78.5925ZM105.532 80.9148C104.901 80.9148 104.362 80.7749 103.915 80.495C103.469 80.2092 103.129 79.8221 102.897 79.3339C102.665 78.8456 102.549 78.2948 102.549 77.6815C102.549 77.0741 102.662 76.5263 102.888 76.038C103.12 75.5498 103.46 75.1627 103.906 74.8769C104.353 74.5911 104.895 74.4482 105.532 74.4482C106.247 74.4482 106.827 74.6208 107.274 74.9662C107.726 75.3056 108.015 75.782 108.14 76.3953H107.309C107.214 76.0083 107.018 75.6986 106.72 75.4664C106.428 75.2282 106.032 75.1091 105.532 75.1091C105.038 75.1091 104.627 75.2252 104.299 75.4575C103.972 75.6837 103.725 75.9904 103.558 76.3774C103.397 76.7645 103.317 77.1992 103.317 77.6815C103.317 78.1757 103.4 78.6163 103.567 79.0034C103.74 79.3904 103.99 79.6971 104.317 79.9234C104.645 80.1437 105.05 80.2538 105.532 80.2538C106.032 80.2538 106.428 80.1407 106.72 79.9144C107.018 79.6822 107.214 79.3755 107.309 78.9945H108.14C108.015 79.5959 107.726 80.0663 107.274 80.4057C106.827 80.7451 106.247 80.9148 105.532 80.9148ZM118.311 80.9148C117.835 80.9148 117.406 80.8344 117.025 80.6736C116.644 80.5069 116.319 80.2777 116.051 79.9859C115.783 79.6941 115.578 79.3517 115.435 78.9587C115.298 78.5657 115.229 78.14 115.229 77.6815C115.229 77.223 115.298 76.7972 115.435 76.4042C115.578 76.0112 115.783 75.6688 116.051 75.3771C116.319 75.0853 116.641 74.859 117.016 74.6983C117.397 74.5315 117.829 74.4482 118.311 74.4482C118.787 74.4482 119.213 74.5285 119.588 74.6893C119.969 74.8441 120.294 75.0674 120.562 75.3592C120.83 75.645 121.035 75.9874 121.178 76.3864C121.321 76.7794 121.392 77.2111 121.392 77.6815C121.392 78.1519 121.321 78.5866 121.178 78.9855C121.035 79.3785 120.83 79.7209 120.562 80.0127C120.294 80.2985 119.969 80.5218 119.588 80.6826C119.213 80.8374 118.787 80.9148 118.311 80.9148ZM118.311 80.2538C118.799 80.2538 119.216 80.1437 119.561 79.9234C119.907 79.703 120.169 79.3994 120.347 79.0123C120.532 78.6253 120.624 78.1817 120.624 77.6815C120.624 77.1694 120.532 76.7228 120.347 76.3417C120.169 75.9547 119.907 75.654 119.561 75.4396C119.216 75.2252 118.799 75.118 118.311 75.118C117.829 75.118 117.415 75.2282 117.069 75.4485C116.724 75.6688 116.459 75.9725 116.275 76.3596C116.09 76.7407 115.998 77.1813 115.998 77.6815C115.998 78.1757 116.09 78.6193 116.275 79.0123C116.459 79.3994 116.724 79.703 117.069 79.9234C117.415 80.1437 117.829 80.2538 118.311 80.2538ZM128.727 80.8076V74.5553H129.477L132.809 79.5661V74.5553H133.559V80.8076H132.809L129.477 75.7969V80.8076H128.727ZM149.753 80.8076V74.5553H153.621V75.1716H150.504V77.1992H153.228V77.8065H150.504V80.1913H153.621V80.8076H149.753ZM163.039 80.9148C162.616 80.9148 162.232 80.8374 161.887 80.6826C161.548 80.5278 161.277 80.3045 161.074 80.0127C160.878 79.715 160.779 79.3547 160.779 78.9319H161.565C161.565 79.3488 161.702 79.6792 161.976 79.9234C162.25 80.1615 162.604 80.2806 163.039 80.2806C163.42 80.2806 163.736 80.1883 163.986 80.0038C164.242 79.8192 164.37 79.5572 164.37 79.2178C164.37 78.9855 164.328 78.8009 164.245 78.664C164.168 78.5211 164.048 78.405 163.888 78.3156C163.727 78.2204 163.524 78.131 163.28 78.0477C163.036 77.9643 162.747 77.8661 162.414 77.7529C162.116 77.6458 161.86 77.5237 161.646 77.3867C161.437 77.2498 161.277 77.083 161.163 76.8865C161.05 76.6841 160.994 76.4429 160.994 76.1631C160.988 75.7939 161.071 75.4843 161.244 75.2342C161.422 74.9781 161.661 74.7846 161.958 74.6536C162.262 74.5166 162.596 74.4482 162.959 74.4482C163.328 74.4482 163.658 74.5166 163.95 74.6536C164.248 74.7846 164.486 74.9811 164.665 75.2431C164.843 75.4991 164.936 75.8118 164.942 76.1809H164.156C164.156 75.8653 164.042 75.6063 163.816 75.4039C163.59 75.1955 163.295 75.0913 162.932 75.0913C162.61 75.0793 162.337 75.1597 162.11 75.3324C161.884 75.5051 161.771 75.7582 161.771 76.0916C161.771 76.3119 161.815 76.4876 161.905 76.6186C162 76.7436 162.161 76.8538 162.387 76.9491C162.613 77.0443 162.926 77.1605 163.325 77.2974C163.611 77.3927 163.867 77.4939 164.093 77.6011C164.319 77.7023 164.51 77.8244 164.665 77.9673C164.82 78.1043 164.939 78.271 165.022 78.4675C165.105 78.658 165.147 78.8932 165.147 79.1731C165.147 79.5482 165.049 79.8668 164.852 80.1288C164.662 80.3848 164.406 80.5813 164.084 80.7183C163.769 80.8493 163.42 80.9148 163.039 80.9148ZM173.78 80.8076V75.1716H171.913V74.5553H176.397V75.1716H174.53V80.8076H173.78ZM183.565 80.8076V74.5553H184.316V80.8076H183.565ZM191.894 80.8076V74.5553H192.644V80.2092H195.556V80.8076H191.894ZM205.094 80.9148C204.618 80.9148 204.189 80.8344 203.808 80.6736C203.427 80.5069 203.103 80.2777 202.835 79.9859C202.567 79.6941 202.361 79.3517 202.218 78.9587C202.081 78.5657 202.013 78.14 202.013 77.6815C202.013 77.223 202.081 76.7972 202.218 76.4042C202.361 76.0112 202.567 75.6688 202.835 75.3771C203.103 75.0853 203.424 74.859 203.799 74.6983C204.18 74.5315 204.612 74.4482 205.094 74.4482C205.571 74.4482 205.997 74.5285 206.372 74.6893C206.753 74.8441 207.077 75.0674 207.345 75.3592C207.613 75.645 207.819 75.9874 207.962 76.3864C208.104 76.7794 208.176 77.2111 208.176 77.6815C208.176 78.1519 208.104 78.5866 207.962 78.9855C207.819 79.3785 207.613 79.7209 207.345 80.0127C207.077 80.2985 206.753 80.5218 206.372 80.6826C205.997 80.8374 205.571 80.9148 205.094 80.9148ZM205.094 80.2538C205.583 80.2538 206 80.1437 206.345 79.9234C206.69 79.703 206.952 79.3994 207.131 79.0123C207.315 78.6253 207.408 78.1817 207.408 77.6815C207.408 77.1694 207.315 76.7228 207.131 76.3417C206.952 75.9547 206.69 75.654 206.345 75.4396C206 75.2252 205.583 75.118 205.094 75.118C204.612 75.118 204.198 75.2282 203.853 75.4485C203.508 75.6688 203.243 75.9725 203.058 76.3596C202.873 76.7407 202.781 77.1813 202.781 77.6815C202.781 78.1757 202.873 78.6193 203.058 79.0123C203.243 79.3994 203.508 79.703 203.853 79.9234C204.198 80.1437 204.612 80.2538 205.094 80.2538Z" fill="#F6EBF9"/>
</svg>
