<svg width="102" height="102" viewBox="0 0 102 102" fill="none" xmlns="http://www.w3.org/2000/svg">
<path d="M71.1742 93.4553C67.8784 94.8408 69.4174 100.661 65.8623 100.98C62.0522 101.322 60.2827 97.2411 59.4881 93.4553C59.1433 91.8127 59.3307 90.8271 59.4881 89.1554C59.8612 85.1909 59.1548 81.2619 62.6752 79.4809C64.9017 78.3544 66.5602 79.4809 69.0495 79.4809C70.2941 79.4809 71.0358 79.8122 72.2366 79.4809C73.6798 79.0826 74.7834 78.6989 75.4237 77.331C75.9566 76.1928 74.7153 75.1416 75.4237 74.1061C76.1705 73.0146 77.5484 74.1062 78.6108 73.0313C78.9428 72.6954 78.7421 72.3545 78.6109 71.9562C78.4253 71.393 77.5485 70.8812 77.5485 70.8812L78.6109 69.8063C79.6732 68.7315 78.6108 68.7315 77.5484 67.6565C76.4907 66.5862 75.4238 65.5064 76.4861 65.5065C77.5484 65.5066 77.5484 65.5064 78.6108 65.5065C80.7356 65.5066 79.2827 63.6415 78.6108 62.2817C77.5484 60.1318 76.4861 59.0572 75.4237 56.907C75.0526 56.156 75.2437 55.5767 75.4237 54.7571C75.6249 53.8407 75.2225 53.5234 75.4237 52.6071C75.6037 51.7875 75.5084 51.2924 75.4237 50.4572C75.1958 48.2083 75.4693 45.6192 73.299 45.0824C71.0192 44.5185 69.8039 47.1335 69.0495 49.3822C68.0786 52.2762 72.2006 54.0326 71.1742 56.9069C70.0376 60.09 65.593 58.3906 63.7376 61.2067C61.8822 64.0228 65.1359 67.5137 62.6752 69.8063C60.5171 71.817 57.4249 68.9019 55.2386 70.8812C53.2831 72.6516 55.185 75.7009 53.1138 77.331C52.3815 77.9073 50.9891 78.4059 50.9891 78.4059C48.577 79.1569 46.8345 76.116 44.6148 77.331C43.5827 77.8959 43.0938 78.4627 42.4901 79.4809C41.2093 81.6407 42.8042 83.432 42.4901 85.9306C41.7404 91.8931 41.4513 102.547 36.1158 99.905C33.4286 98.5743 34.5422 94.8091 31.8663 93.4553C28.8745 91.9417 26.2685 96.2147 23.3673 94.5302C20.2927 92.7451 23.0629 88.0178 20.1801 85.9306C17.7944 84.2032 14.6559 87.1066 12.7435 84.8556C10.8503 82.6273 14.0973 79.9307 12.7435 77.331C11.1843 74.3367 6.44352 76.2142 5.30686 73.0312C4.28048 70.1569 8.05711 68.4964 7.43162 65.5065C6.70258 62.0216 1.45643 62.5959 1.05736 59.0568C0.678184 55.6941 5.30686 54.9166 5.30686 51.5321C5.30686 48.1476 0.419852 47.3299 1.05736 44.0074C1.67494 40.7888 6.3737 41.7317 7.43162 38.6327C8.54859 35.3606 3.93724 33.2053 5.30686 30.0331C6.64594 26.9316 11.1843 28.7275 12.7435 25.7332C14.0973 23.1335 11.1057 20.6352 12.7435 18.2086C14.6729 15.3499 18.8704 18.5532 21.2425 16.0587C23.3367 13.8564 20.9227 10.3289 23.3673 8.534C26.0745 6.54628 28.7656 10.8786 31.8663 9.60895C34.87 8.37904 34.0605 4.05274 37.1782 3.15924C40.0842 2.32639 41.6316 5.78715 44.6148 5.30914C47.5698 4.83567 48.0044 1.21761 50.9891 1.00933C54.326 0.776474 55.0972 4.9748 58.4257 5.30914C61.4313 5.61106 62.9563 2.32639 65.8623 3.15924C68.98 4.05274 68.1187 8.5175 71.1742 9.60895C73.9406 10.5971 76.1293 6.9507 78.6109 8.534C81.1657 10.1641 78.6414 13.8564 80.7356 16.0587C83.1077 18.5532 86.9855 15.6 89.2346 18.2086C91.4336 20.7589 88.4665 23.9755 90.297 26.8082C91.9342 29.3419 95.467 28.3369 96.6713 31.108C97.8521 33.8253 94.6812 35.8166 95.6089 38.6327C96.5366 41.4487 100.294 41.1076 100.921 44.0074C101.596 47.1306 97.7336 48.335 97.7336 51.5321C97.7336 54.7292 101.353 55.8898 100.921 59.0568C100.478 62.3047 96.4242 62.3333 95.6089 65.5065C94.8708 68.3794 97.8418 70.3093 96.6713 73.0312C95.3367 76.1346 90.907 74.3999 89.2346 77.331C87.5752 80.2394 91.4227 83.4053 89.2346 85.9306C87.0296 88.4755 83.0014 84.5158 80.7356 87.0055C78.7484 89.1892 81.8855 92.5806 79.6732 94.5302C77.1509 96.7531 74.2631 92.1567 71.1742 93.4553Z" fill="#2D0363" stroke="#2D0363"/>
</svg>
