<svg width="25" height="25" viewBox="0 0 25 25" fill="none" xmlns="http://www.w3.org/2000/svg">
<path d="M11.5781 17.1657C11.3268 17.1684 11.0843 17.0736 10.9018 16.9014C10.7193 16.7292 10.6111 16.493 10.6 16.2428C10.5979 16.199 10.5938 16.0813 10.4927 16.0813C10.451 16.0813 10.4156 16.1053 10.375 16.1428C10.2583 16.2501 10.1104 16.3574 9.89583 16.3574C9.78648 16.355 9.67861 16.3317 9.57812 16.2886C9.02083 16.0657 9.01354 15.6865 9.03542 15.5334C9.04167 15.4938 9.04271 15.4501 9.01458 15.4188L8.98125 15.3876H8.94583C8.91771 15.3876 8.88854 15.4001 8.84896 15.4282C8.71261 15.5316 8.54725 15.5899 8.37604 15.5949C8.28572 15.5939 8.19636 15.5763 8.1125 15.5428C7.375 15.2615 7.43542 14.5761 7.46979 14.3699C7.47535 14.3268 7.46493 14.2949 7.43854 14.274L7.38646 14.2324L7.3375 14.2771C7.19618 14.4128 7.00763 14.4886 6.81146 14.4886C6.60996 14.4892 6.41649 14.4099 6.27352 14.2683C6.13055 14.1267 6.04979 13.9343 6.04896 13.7334C6.04896 13.3167 6.39062 12.9813 6.81146 12.9813C7.19062 12.9813 7.51458 13.2626 7.5625 13.6376L7.58958 13.8407L7.70417 13.6688C7.71458 13.6501 8.02396 13.1896 8.59167 13.1896C8.69792 13.1896 8.81042 13.2063 8.92083 13.2417C9.37292 13.3771 9.45 13.7834 9.46146 13.9501C9.46979 14.048 9.53958 14.0542 9.55521 14.0542C9.59375 14.0542 9.62187 14.0292 9.64167 14.0074C9.71474 13.9325 9.80224 13.8731 9.89891 13.8329C9.99557 13.7926 10.0994 13.7722 10.2042 13.773C10.3382 13.773 10.4778 13.8042 10.6229 13.8667C11.3417 14.1719 11.0177 15.073 11.0125 15.0824C10.9521 15.2324 10.949 15.298 11.0073 15.3365L11.0354 15.3501H11.0562C11.0875 15.3501 11.1292 15.3355 11.1958 15.3136C11.2927 15.2803 11.4406 15.2303 11.5781 15.2303C11.836 15.2313 12.0832 15.3335 12.2664 15.5147C12.4495 15.6959 12.554 15.9417 12.5573 16.199C12.5556 16.4567 12.4516 16.7032 12.268 16.8844C12.0845 17.0656 11.8363 17.1668 11.5781 17.1657ZM19.1844 12.8209C17.999 11.8001 15.2594 9.4459 14.5167 8.89382C14.0937 8.57923 13.8031 8.41257 13.55 8.33861C13.3962 8.29095 13.2361 8.26638 13.075 8.26569C12.8847 8.26569 12.6833 8.29868 12.4708 8.36465C11.9917 8.51569 11.5146 8.89069 11.0521 9.25423L11.0281 9.27298C10.5969 9.61048 10.1531 9.96048 9.81563 10.0334C9.66863 10.0666 9.51843 10.0837 9.36771 10.0844C8.99062 10.0844 8.65208 9.97611 8.52396 9.81569C8.50312 9.79 8.51701 9.74659 8.56562 9.68548L8.57396 9.67715L9.61562 8.56569C10.4312 7.75944 11.2042 6.99694 12.9802 6.95632H13.0687C14.175 6.95632 15.2771 7.44486 15.4021 7.50215C16.3924 7.9914 17.4809 8.24928 18.5854 8.25631C19.7062 8.25631 20.8646 7.98236 22.0792 7.42819C21.9417 7.31419 21.801 7.20408 21.6573 7.09798C20.5896 7.55632 19.5708 7.78548 18.5885 7.78548C17.5865 7.78548 16.5833 7.54694 15.6115 7.07715C15.5594 7.05423 14.3406 6.48652 13.0698 6.4834C13.0358 6.4834 13.0024 6.48409 12.9698 6.48548C11.476 6.51986 10.6365 7.04382 10.0719 7.50215C9.52187 7.51569 9.04896 7.6459 8.62604 7.76257C8.25 7.86673 7.925 7.95632 7.60625 7.95527C7.47604 7.95527 7.24167 7.94486 7.22083 7.94277C6.85625 7.93236 5.01771 7.48757 3.55625 6.94069C3.40833 7.04486 3.26424 7.1525 3.12396 7.26361C4.65104 7.88131 6.50937 8.36048 7.09479 8.39798C7.25833 8.4084 7.43125 8.42611 7.60625 8.42611C7.99375 8.42611 8.38125 8.31881 8.75625 8.21465C8.97812 8.15319 9.22083 8.08652 9.47708 8.03757L9.27292 8.23965L8.21354 9.37194C8.13021 9.45527 7.94896 9.67819 8.06771 9.95215C8.12963 10.0781 8.22652 10.1837 8.34687 10.2563C8.6 10.4251 9.05208 10.5376 9.47188 10.5386C9.6316 10.5386 9.7809 10.5233 9.91979 10.4928C10.3646 10.3938 10.8302 10.0261 11.325 9.63861C11.7177 9.33027 12.276 8.93861 12.7031 8.82402C12.8289 8.79066 12.9584 8.77316 13.0885 8.77194C13.1216 8.77111 13.1547 8.77285 13.1875 8.77715C13.4687 8.81256 13.7427 8.90736 14.2323 9.26882C15.1021 9.91465 18.9521 13.2428 18.9885 13.2751C18.9906 13.2771 19.2365 13.4865 19.2177 13.8344C19.2104 14.0282 19.1031 14.2011 18.9115 14.3199C18.7618 14.4189 18.5869 14.4732 18.4073 14.4761C18.2494 14.4758 18.0949 14.431 17.9615 14.3469C17.9469 14.3365 16.6281 13.1417 16.1427 12.7396C16.0656 12.6771 15.9906 12.6199 15.9135 12.6199C15.8944 12.6195 15.8754 12.6235 15.8581 12.6317C15.8407 12.6398 15.8255 12.6518 15.8135 12.6667C15.7375 12.7605 15.824 12.8876 15.9229 12.973L17.4646 14.5042C17.4667 14.5042 17.6562 14.6813 17.6771 14.9157C17.6889 15.1706 17.5674 15.381 17.3125 15.5469C17.1514 15.6588 16.9608 15.7208 16.7646 15.7251C16.6089 15.7245 16.4569 15.6785 16.3271 15.5928L16.1042 15.3782C15.7416 15.0148 15.3664 14.6642 14.9792 14.3271C14.9042 14.2667 14.825 14.2105 14.749 14.2105C14.7308 14.2102 14.7128 14.2135 14.696 14.2203C14.6792 14.2271 14.6639 14.2372 14.651 14.2501C14.6167 14.2886 14.5927 14.3574 14.6802 14.4709C14.7039 14.5018 14.73 14.5307 14.7583 14.5574L15.8812 15.8053C15.8917 15.8157 16.1125 16.0761 15.9062 16.3376L15.8667 16.3876C15.8339 16.4229 15.7992 16.4563 15.7625 16.4876C15.5708 16.6438 15.3146 16.6584 15.2135 16.6584C15.1622 16.6589 15.111 16.6548 15.0604 16.6459C14.9493 16.6271 14.8757 16.5962 14.8396 16.5532L14.826 16.5396C14.7635 16.4771 14.199 15.9053 13.7281 15.5188C13.6667 15.4667 13.5896 15.4042 13.5094 15.4042C13.4906 15.4042 13.472 15.4081 13.4548 15.4156C13.4376 15.4231 13.4221 15.4341 13.4094 15.448C13.3156 15.548 13.4552 15.698 13.5135 15.7532L14.4719 16.798C14.4643 16.8214 14.4527 16.8432 14.4375 16.8626C14.4031 16.9084 14.2875 17.024 13.9385 17.0667C13.8964 17.072 13.8539 17.0744 13.8115 17.074C13.4521 17.074 13.0698 16.9032 12.8719 16.799C12.9612 16.6116 13.0074 16.4066 13.0073 16.199C13.0063 16.0084 12.9669 15.8199 12.8914 15.6447C12.816 15.4695 12.706 15.3113 12.568 15.1794C12.43 15.0476 12.2668 14.9447 12.0882 14.8771C11.9095 14.8094 11.7191 14.7782 11.5281 14.7855C11.5531 14.4292 11.5021 13.7542 10.8021 13.4584C10.6134 13.3747 10.4096 13.3304 10.2031 13.3282C10.0503 13.3282 9.90451 13.3542 9.76562 13.4063C9.61938 13.1263 9.36818 12.9151 9.06667 12.8188C8.90124 12.7611 8.72735 12.7312 8.55208 12.7303C8.25972 12.7303 7.9934 12.8143 7.75312 12.9824C7.6394 12.8429 7.49601 12.7303 7.33334 12.6528C7.17066 12.5754 6.99276 12.5349 6.8125 12.5344C6.49299 12.5349 6.18636 12.6602 5.95833 12.8834C5.65937 12.6574 4.47396 11.9146 1.30521 11.2032C1.0636 11.1425 0.82327 11.0769 0.584375 11.0063C0.548751 11.1763 0.521979 11.3481 0.504167 11.5209L1.20208 11.6844C4.43958 12.3949 5.51042 13.1334 5.69062 13.273C5.629 13.4187 5.59713 13.5752 5.59687 13.7334C5.5977 13.9105 5.63759 14.0853 5.71373 14.2454C5.78987 14.4054 5.90037 14.5467 6.0374 14.6592C6.17442 14.7718 6.3346 14.8529 6.50655 14.8966C6.6785 14.9404 6.858 14.9459 7.03229 14.9126C7.13229 15.399 7.45521 15.7678 7.94792 15.9574C8.08571 16.0112 8.23222 16.0394 8.38021 16.0407C8.47396 16.0407 8.56632 16.0289 8.65729 16.0053C8.74687 16.2344 8.95104 16.5188 9.40937 16.7011C9.56036 16.7637 9.72193 16.7969 9.88542 16.799C10.0125 16.799 10.1358 16.7771 10.2552 16.7334C10.3643 16.9933 10.548 17.2152 10.7832 17.3711C11.0185 17.527 11.2947 17.61 11.5771 17.6094C11.9625 17.6115 12.3333 17.4563 12.6031 17.1824C12.8333 17.3084 13.3198 17.5376 13.8146 17.5376C13.8771 17.5383 13.9378 17.5348 13.9969 17.5271C14.4865 17.4657 14.7146 17.2771 14.8187 17.1292C14.8376 17.1035 14.8543 17.0764 14.8687 17.048C14.9833 17.0813 15.1125 17.1084 15.2573 17.1084C15.5229 17.1084 15.7792 17.0188 16.0385 16.8324C16.2927 16.6511 16.474 16.3907 16.501 16.1688V16.1584C16.5878 16.1765 16.675 16.1855 16.7625 16.1855C17.0385 16.1855 17.3115 16.1001 17.5677 15.9334C18.0677 15.6105 18.1531 15.1886 18.1448 14.9126C18.3195 14.9487 18.4997 14.9494 18.6747 14.9147C18.8497 14.88 19.0159 14.8106 19.1635 14.7105C19.3114 14.6219 19.4359 14.4993 19.5269 14.3529C19.6178 14.2066 19.6725 14.0406 19.6865 13.8688C19.7045 13.6302 19.6462 13.392 19.5198 13.1886C20.3573 12.8324 22.2656 12.1438 24.5146 11.6438C24.5003 11.4719 24.4771 11.3008 24.4448 11.1313C22.6416 11.525 20.8805 12.0901 19.1854 12.8188L19.1844 12.8209ZM24.5208 12.0261C24.5208 16.2209 19.1396 19.623 12.5031 19.623C5.86667 19.623 0.484375 16.2209 0.484375 12.0261C0.484375 7.83132 5.86458 4.42923 12.5042 4.42923C19.1406 4.42923 24.5208 7.83027 24.5208 12.0261ZM25 12.0303C25 7.58027 19.4021 3.95215 12.5 3.95215C5.59792 3.95215 0.00208333 7.58027 0.00208333 12.0313L0 12.5042C0 17.2261 4.89062 21.049 12.499 21.049C20.1521 21.049 24.999 17.2261 24.999 12.5032L25 12.0303Z" fill="#2D0363"/>
</svg>
