<svg width="33" height="25" viewBox="0 0 33 25" fill="none" xmlns="http://www.w3.org/2000/svg">
<path d="M6.31764 24.8755V23.2209C6.31764 22.5865 5.93339 22.1729 5.27477 22.1729C4.94552 22.1729 4.58877 22.2832 4.34177 22.6417C4.14977 22.3383 3.87539 22.1729 3.46377 22.1729C3.18927 22.1729 2.91502 22.2556 2.69539 22.5589V22.228H2.11914V24.8755H2.69539V23.4138C2.69539 22.9451 2.94239 22.7244 3.32664 22.7244C3.71064 22.7244 3.90289 22.9726 3.90289 23.4138V24.8755H4.47914V23.4138C4.47914 22.9451 4.75339 22.7244 5.11014 22.7244C5.49439 22.7244 5.68639 22.9726 5.68639 23.4138V24.8755H6.31764ZM14.8515 22.228H13.9186V21.4283H13.3424V22.228H12.821V22.7519H13.3423V23.9655C13.3423 24.5723 13.5893 24.9307 14.2479 24.9307C14.4949 24.9307 14.7691 24.848 14.9614 24.7377L14.7966 24.2412C14.632 24.3515 14.44 24.3792 14.3028 24.3792C14.0284 24.3792 13.9186 24.2137 13.9186 23.9378V22.7519H14.8515V22.228ZM19.736 22.1728C19.4068 22.1728 19.1873 22.3383 19.05 22.5589V22.228H18.4738V24.8755H19.05V23.3863C19.05 22.9451 19.242 22.6969 19.5988 22.6969C19.7085 22.6969 19.8458 22.7245 19.9555 22.752L20.1201 22.2005C20.0104 22.1729 19.8458 22.1729 19.736 22.1729M12.3545 22.4488C12.08 22.2557 11.6959 22.173 11.2843 22.173C10.6258 22.173 10.1868 22.5039 10.1868 23.0279C10.1868 23.4692 10.516 23.7174 11.0923 23.8002L11.3666 23.8278C11.6685 23.8828 11.8331 23.9656 11.8331 24.1035C11.8331 24.2965 11.6136 24.4344 11.2294 24.4344C10.8451 24.4344 10.5434 24.2965 10.3513 24.1587L10.0769 24.5999C10.3788 24.8205 10.7904 24.9308 11.2019 24.9308C11.9703 24.9308 12.4094 24.5724 12.4094 24.0759C12.4094 23.6071 12.0526 23.3588 11.5038 23.2762L11.2294 23.2485C10.9824 23.2209 10.7904 23.1659 10.7904 23.0004C10.7904 22.8073 10.9824 22.697 11.2843 22.697C11.6136 22.697 11.9429 22.8348 12.1075 22.9176L12.3545 22.4488ZM27.6664 22.173C27.337 22.173 27.1175 22.3385 26.9803 22.5591V22.2282H26.404V24.8757H26.9803V23.3865C26.9803 22.9453 27.1724 22.697 27.529 22.697C27.6389 22.697 27.7761 22.7246 27.8859 22.7522L28.0505 22.2007C27.9408 22.173 27.7761 22.173 27.6664 22.173ZM20.3123 23.5519C20.3123 24.3517 20.861 24.9308 21.7118 24.9308C22.0959 24.9308 22.3703 24.8481 22.6446 24.6275L22.3703 24.1587C22.1508 24.3241 21.9313 24.4068 21.6843 24.4068C21.2178 24.4068 20.8885 24.0759 20.8885 23.5519C20.8885 23.0556 21.2178 22.7245 21.6843 22.697C21.9313 22.697 22.1508 22.7797 22.3703 22.9453L22.6446 22.4764C22.3703 22.2557 22.0959 22.173 21.7118 22.173C20.861 22.173 20.3123 22.7522 20.3123 23.5519ZM25.6358 23.5519V22.2282H25.0595V22.5591C24.8674 22.311 24.593 22.173 24.2363 22.173C23.4954 22.173 22.9191 22.7522 22.9191 23.5519C22.9191 24.3517 23.4954 24.9308 24.2363 24.9308C24.6204 24.9308 24.8949 24.793 25.0595 24.5448V24.8757H25.6358V23.5519ZM23.5228 23.5519C23.5228 23.0831 23.8246 22.697 24.3185 22.697C24.785 22.697 25.1144 23.0556 25.1144 23.5519C25.1144 24.0208 24.785 24.4068 24.3185 24.4068C23.8246 24.3792 23.5228 24.0208 23.5228 23.5519ZM16.6353 22.173C15.8669 22.173 15.318 22.7245 15.318 23.5519C15.318 24.3793 15.8668 24.9308 16.6626 24.9308C17.0468 24.9308 17.431 24.8205 17.7329 24.5724L17.4584 24.1587C17.2389 24.3241 16.9645 24.4344 16.6901 24.4344C16.3334 24.4344 15.9766 24.269 15.8943 23.8H17.8426V23.5795C17.8701 22.7245 17.3763 22.173 16.6353 22.173ZM16.6351 22.6694C16.9918 22.6694 17.2389 22.8901 17.2936 23.3038H15.9216C15.9765 22.9453 16.2235 22.6694 16.6351 22.6694ZM30.9316 23.5519V21.1802H30.3554V22.5591C30.1633 22.311 29.8889 22.173 29.5321 22.173C28.7913 22.173 28.215 22.7522 28.215 23.5519C28.215 24.3517 28.7913 24.9308 29.5321 24.9308C29.9164 24.9308 30.1908 24.793 30.3554 24.5448V24.8757H30.9316V23.5519ZM28.8188 23.5519C28.8188 23.0831 29.1205 22.697 29.6145 22.697C30.081 22.697 30.4103 23.0556 30.4103 23.5519C30.4103 24.0208 30.081 24.4068 29.6145 24.4068C29.1205 24.3792 28.8188 24.0208 28.8188 23.5519ZM9.55539 23.5519V22.2282H8.97914V22.5591C8.78702 22.311 8.51264 22.173 8.15589 22.173C7.41502 22.173 6.83877 22.7522 6.83877 23.5519C6.83877 24.3517 7.41502 24.9308 8.15589 24.9308C8.54014 24.9308 8.81452 24.793 8.97914 24.5448V24.8757H9.55539V23.5519ZM7.41502 23.5519C7.41502 23.0831 7.71689 22.697 8.21077 22.697C8.67727 22.697 9.00664 23.0556 9.00664 23.5519C9.00664 24.0208 8.67727 24.4068 8.21077 24.4068C7.71689 24.3792 7.41502 24.0208 7.41502 23.5519Z" fill="black"/>
<path d="M12.1621 2.12354H20.8059V17.733H12.1621V2.12354Z" fill="#FF5F00"/>
<path d="M12.7111 9.92827C12.7111 6.75678 14.1929 3.94372 16.4704 2.12349C14.7966 0.799749 12.6838 0 10.3787 0C4.91787 0 0.5 4.44007 0.5 9.92827C0.5 15.4165 4.91787 19.8565 10.3786 19.8565C12.6836 19.8565 14.7965 19.0568 16.4704 17.7329C14.1929 15.9403 12.7111 13.0997 12.7111 9.92827Z" fill="#EB001B"/>
<path d="M32.4684 9.92827C32.4684 15.4163 28.0505 19.8565 22.5898 19.8565C20.2848 19.8565 18.1719 19.0568 16.498 17.7329C18.803 15.9128 20.2574 13.0997 20.2574 9.92827C20.2574 6.75678 18.7755 3.94372 16.498 2.12349C18.1718 0.799749 20.2848 0 22.5898 0C28.0505 0 32.4684 4.46771 32.4684 9.92827Z" fill="#F79E1B"/>
</svg>
