<svg width="32" height="25" viewBox="0 0 32 25" fill="none" xmlns="http://www.w3.org/2000/svg">
<path d="M16.5496 10.6841C16.5314 12.0715 17.8325 12.8457 18.8126 13.3061C19.8196 13.7784 20.1579 14.0813 20.1539 14.5037C20.1464 15.1501 19.3506 15.4354 18.606 15.4465C17.3069 15.4659 16.5515 15.1084 15.951 14.838L15.483 16.9488C16.0855 17.2163 17.2011 17.4497 18.358 17.46C21.0736 17.46 22.8503 16.1679 22.8599 14.1647C22.8705 11.6222 19.2114 11.4815 19.2364 10.3451C19.245 10.0006 19.5861 9.63285 20.3336 9.53936C20.7036 9.49213 21.725 9.45598 22.883 9.96996L23.3375 7.92779C22.7148 7.70924 21.9144 7.49996 20.9179 7.49996C18.3619 7.49996 16.5641 8.8096 16.5496 10.6841ZM27.7048 7.67586C27.2089 7.67586 26.791 7.95466 26.6045 8.38249L22.7254 17.31H25.439L25.979 15.8715H29.295L29.6082 17.31H32L29.9129 7.67586H27.7048ZM28.0844 10.2784L28.8675 13.8961H26.7227L28.0844 10.2784ZM13.2595 7.67598L11.1205 17.3098H13.7064L15.8444 7.67574L13.2595 7.67598ZM9.43412 7.67598L6.74263 14.2332L5.65387 8.65767C5.52612 8.03526 5.02163 7.67586 4.46138 7.67586H0.061625L0 7.95562C0.90325 8.14454 1.9295 8.44924 2.55125 8.77526C2.93175 8.97442 3.04025 9.14851 3.16525 9.62177L5.22738 17.31H7.96L12.1495 7.67586L9.43412 7.67598Z" fill="url(#paint0_linear_1602_24693)"/>
<defs>
<linearGradient id="paint0_linear_1602_24693" x1="1471.17" y1="37.4397" x2="1498.96" y2="-985.525" gradientUnits="userSpaceOnUse">
<stop stop-color="#222357"/>
<stop offset="1" stop-color="#254AA5"/>
</linearGradient>
</defs>
</svg>
