<svg width="26" height="25" viewBox="0 0 26 25" fill="none" xmlns="http://www.w3.org/2000/svg">
<path d="M21.334 21.3542H4.66732C3.52148 21.3542 2.58398 20.4167 2.58398 19.2708V8.38542C2.58398 7.70833 2.89648 7.08333 3.4694 6.66667L13.0007 0L22.5319 6.66667C23.1048 7.03125 23.4173 7.70833 23.4173 8.38542V19.2708C23.4173 20.4167 22.4798 21.3542 21.334 21.3542Z" fill="#78909C"/>
<path d="M7.79102 0.520752H18.2077V16.6666H7.79102V0.520752Z" fill="#AED581"/>
<path d="M7.27148 0V17.1875H18.7298V0H7.27148ZM17.6882 16.1458H8.31315V1.04167H17.6882V16.1458Z" fill="#558B2F"/>
<path d="M18.2096 1.56242C18.2096 2.44784 18.0534 3.12492 17.168 3.12492C16.2826 3.12492 15.6055 2.44784 15.6055 1.56242C15.6055 0.677002 16.2826 0.520752 17.168 0.520752C18.0534 0.520752 18.2096 0.677002 18.2096 1.56242ZM8.83464 0.520752C9.72005 0.520752 10.3971 0.677002 10.3971 1.56242C10.3971 2.44784 9.72005 3.12492 8.83464 3.12492C7.94922 3.12492 7.79297 2.44784 7.79297 1.56242C7.79297 0.677002 7.94922 0.520752 8.83464 0.520752Z" fill="#558B2F"/>
<path d="M13.0007 5.20833C13.5759 5.20833 14.0423 4.74196 14.0423 4.16667C14.0423 3.59137 13.5759 3.125 13.0007 3.125C12.4254 3.125 11.959 3.59137 11.959 4.16667C11.959 4.74196 12.4254 5.20833 13.0007 5.20833Z" fill="#558B2F"/>
<path d="M13 13.5417C14.7259 13.5417 16.125 12.1426 16.125 10.4167C16.125 8.69086 14.7259 7.29175 13 7.29175C11.2741 7.29175 9.875 8.69086 9.875 10.4167C9.875 12.1426 11.2741 13.5417 13 13.5417Z" fill="#558B2F"/>
<path d="M21.334 21.3542H4.66732C3.52148 21.3542 2.58398 20.4167 2.58398 19.2709V8.85425L13.0007 15.6251L23.4173 8.85425V19.2709C23.4173 20.4167 22.4798 21.3542 21.334 21.3542Z" fill="#CFD8DC"/>
</svg>
